<svg xmlns="http://www.w3.org/2000/svg" viewBox="0 0 2508 2508" width="2508" height="2508" role="presentation" aria-hidden="true"><rect width="2508" height="2508" fill="#fff"/><defs><path id="t" d="M1253 1145l -7 6 -11 16 -6 16 -3 25 -12 -12 -13 -8 -21 -8 -23 -4 0 13 4 20 8 19 14 18 -27 7 53 0 -10 -3 -9 -6 -14 -16 -9 -20 -4 -19 1 -6 22 5 26 14 17 20 11 30 10 1 -9 -15 -6 -16 -2 -10 0 -19 4 -16 6 -12 10 -12 zM0 1145l 0 9 13 18 6 22 -2 26 -8 21 -7 12 9 0 13 -34 14 -16 17 -11 29 -9 5 1 -5 25 -10 21 -14 15 -17 8 53 0 -28 -7 12 -14 8 -16 6 -22 1 -18 -16 2 -23 7 -20 12 -11 11 -3 -29 -9 -19 zM528 1177l 2 20 7 23 8 14 11 12 -1 2 -10 0 -17 5 53 0 -10 -3 -6 -4 -17 -18 -10 -23 -3 -22 26 6 23 13 17 20 11 30 10 1 -14 -27 -3 -13 0 -21 3 -13 6 -12 12 -15 11 13 7 15 3 14 0 17 -3 13 -14 29 9 0 13 -34 16 -18 15 -9 30 -9 4 1 -1 9 -5 19 -6 13 -6 9 -11 11 -17 8 53 0 -11 -4 -17 -2 13 -17 8 -17 6 -24 0 -13 -16 2 -25 8 -14 8 -14 13 -2 -18 -4 -15 -14 -23 -9 -7 -14 16 -7 14 -4 13 -2 20 -15 -13 -16 -9 -23 -7 zM0 884l 0 10 7 11 4 14 -1 20 -3 8 -7 8 0 11 7 8 4 12 0 16 -4 13 -7 11 0 10 9 -12 6 -14 2 -10 -2 -24 12 3 19 -1 22 -9 10 -8 0 -2 -10 -7 -20 -9 -24 -1 -9 3 2 -10 -1 -20 -9 -22 zM3 960l 14 -10 18 -3 21 5 9 5 3 4 -18 10 -8 2 -17 0 -15 -6 zM1253 883l -10 14 -6 15 -2 12 2 21 -8 -3 -20 0 -23 9 -12 9 10 9 22 9 20 1 11 -4 1 4 -3 9 2 21 6 15 10 13 0 -10 -8 -12 -4 -14 1 -18 4 -10 7 -8 0 -9 -6 -6 -6 -17 1 -17 3 -10 8 -13 zM1249 960l -10 9 -12 4 -22 -1 -21 -11 12 -9 22 -5 17 3 zM1252 508l -11 12 -8 14 -5 18 -2 18 -13 -12 -16 -9 -20 -7 -20 -3 1 19 6 21 11 20 10 10 -21 3 -17 7 -15 11 -10 12 13 13 18 11 32 6 -11 12 -9 16 -7 23 -2 19 13 -1 21 -5 19 -9 17 -15 3 20 6 16 8 13 10 10 0 -8 -14 -20 -6 -22 0 -13 4 -16 8 -19 8 -11 0 -9 -3 4 -2 -8 -9 0 6 -8 -7 -8 14 0 1 -14 -11 -17 -7 -18 -2 -11 0 -17 2 -10 8 -18 10 -12 zM1242 655l 0 9 -12 32 -10 14 -11 10 -15 8 -24 7 -6 0 0 -13 6 -19 12 -20 17 -14 14 -4 17 -8 zM1130 641l 11 -11 17 -10 14 -4 20 0 31 12 7 5 7 9 -11 10 -28 12 -27 1 -21 -7 -12 -8 zM1163 547l 4 -1 17 4 20 9 10 7 16 20 11 29 2 11 -3 1 -15 -4 -11 -6 -13 -4 -11 -7 -12 -13 -7 -13 -7 -22 zM0 508l 0 9 9 10 8 18 2 10 0 19 -3 13 -9 21 -7 10 0 9 2 -2 1 8 11 0 -7 8 6 7 -10 1 -1 8 -2 -2 0 9 9 13 8 21 2 13 -1 13 -4 15 -7 14 -7 8 1 9 7 -8 11 -19 4 -12 2 -20 8 9 19 12 20 7 23 3 -1 -20 -6 -20 -8 -15 -13 -15 18 -2 13 -4 19 -11 13 -14 -14 -15 -10 -7 -17 -7 -20 -4 12 -15 8 -16 6 -24 0 -14 -20 3 -22 8 -14 8 -13 12 -2 -20 -4 -14 -8 -15 zM9 656l 4 -1 12 3 14 7 14 4 11 8 10 11 8 15 5 16 2 15 -6 1 -26 -7 -17 -10 -16 -18 -10 -25 zM15 641l 15 -14 18 -8 17 -4 17 1 15 5 16 10 9 9 0 2 -15 13 -12 6 -14 4 -21 0 -9 -2 -23 -10 zM88 546l 0 13 -6 19 -12 20 -17 14 -16 5 -11 6 -16 4 2 -16 10 -25 9 -13 11 -10 18 -10 zM1253 247l -11 15 -5 13 -2 10 2 22 -14 -4 -20 2 -16 7 -13 9 0 2 8 6 21 10 21 2 13 -4 1 3 -3 12 2 19 6 15 10 13 0 -10 -7 -10 -5 -18 0 -11 3 -11 9 -12 0 -10 -7 -7 -5 -14 1 -17 3 -9 8 -13 zM1184 323l 8 -7 20 -7 12 0 12 3 6 3 7 7 -9 8 -16 5 -24 -3 zM0 247l 0 11 7 11 4 15 -2 20 -9 12 0 11 6 7 5 14 0 16 -3 11 -8 13 1 10 6 -8 9 -21 1 -20 -3 -10 1 -2 15 4 14 -1 19 -7 16 -11 -10 -8 -24 -10 -18 -1 -12 4 2 -25 -4 -14 zM3 322l 13 -10 12 -3 11 0 13 3 13 7 3 4 -20 10 -18 2 -14 -3 zM12 185l -12 13 0 12 9 -13 15 -15 20 -15 9 -4 -1 22 4 21 8 25 0 26 11 -2 25 2 19 7 18 13 -2 1 -14 -8 -26 -8 -20 -1 -14 3 -4 -1 2 -25 -12 -44 -2 -19 -20 14 -15 15 -10 14 0 13 14 -22 16 -16 9 -7 14 54 -2 22 -6 14 21 -8 21 -1 23 5 12 5 6 5 -7 11 -16 16 -23 13 14 7 14 11 12 13 7 12 -18 10 -21 5 -24 -2 -21 -9 6 15 2 21 -13 52 -25 -21 -15 -24 0 14 20 24 25 17 3 -20 10 -34 1 -17 -3 -14 2 -1 19 5 15 0 20 -5 20 -10 3 3 -10 8 -22 9 -15 2 -24 -3 1 18 -12 44 0 26 -13 -6 -15 -11 -17 -17 -8 -11 0 12 19 19 13 10 15 9 16 6 -4 -15 -1 -13 3 -17 8 -25 1 -21 28 0 18 -5 23 -13 8 -7 0 -3 4 0 10 19 -12 19 -17 17 -10 7 -17 8 -16 4 11 20 7 30 -1 25 -6 21 16 -2 33 2 16 4 32 15 3 -12 6 -12 15 -19 10 -9 16 -10 4 1 10 9 -10 15 -8 19 -3 14 -1 21 -20 0 -31 9 -18 2 -24 -5 16 32 12 15 21 20 -20 19 -11 14 -12 21 -5 16 12 -5 21 -1 38 10 22 0 -1 15 3 19 7 21 12 22 -12 9 -21 -15 -11 -11 -11 -15 -9 -23 -29 16 -22 5 -18 0 -25 -6 4 23 0 29 -7 28 -11 19 27 8 12 6 16 12 18 21 -10 10 -19 -14 -19 -10 -25 -6 -18 0 -2 -25 -7 -21 -4 -21 1 -13 4 -15 -8 2 -25 14 -30 28 0 12 12 -16 16 -15 25 -15 0 27 12 46 -1 20 8 -2 25 1 21 7 18 12 -5 1 -15 -8 -29 -7 -13 0 -18 3 3 -13 -1 -21 -11 -37 -1 -17 -14 8 -23 21 -9 13 0 13 14 -22 19 -18 6 -4 2 1 1 10 7 20 4 22 -1 17 -7 19 17 -7 24 -2 18 3 18 7 7 5 -8 12 -17 17 -10 7 -12 5 14 7 16 13 17 22 -17 10 -20 5 -25 -1 -21 -8 5 13 2 22 -13 51 -24 -20 -16 -25 0 13 5 8 28 27 13 6 0 -10 12 -42 1 -17 -2 -14 17 3 14 0 30 -7 14 -8 3 4 -21 12 -17 5 -15 1 -18 -3 0 24 -11 38 0 26 -11 -5 -16 -11 -13 -12 -13 -17 0 11 28 27 14 9 21 9 -5 -27 3 -18 9 -29 0 -17 25 0 15 -3 20 -9 21 -15 10 19 -14 21 -12 12 -15 11 -14 7 -17 5 13 26 5 23 -1 25 -6 20 33 -2 26 4 21 8 17 10 2 -10 9 -18 8 -11 19 -18 13 -7 13 11 -10 17 -8 19 -3 14 -1 20 -19 0 -38 10 -17 0 -18 -6 4 15 10 20 8 0 -9 -14 -4 -9 1 -2 8 2 16 0 39 -10 27 1 -2 -20 4 -21 10 -21 8 -11 14 9 12 11 12 14 7 13 -1 1 -21 -23 -23 -16 -10 19 -4 13 -2 20 4 19 -31 -2 -14 2 -30 9 -13 0 9 16 8 0 -6 -8 1 -3 11 -1 31 -9 26 1 18 7 -6 -17 -2 -19 4 -21 9 -17 13 9 17 17 12 18 -14 22 -5 21 6 0 4 -18 9 -14 8 12 5 20 6 0 -5 -21 -14 -22 17 -24 24 -20 7 10 6 24 -1 22 -7 19 15 -7 10 -2 19 0 41 10 3 2 -7 9 8 0 9 -16 -12 0 -27 -8 -18 -3 -30 2 3 -12 -1 -23 -5 -18 -9 -18 -22 15 -17 17 -6 9 -1 -1 2 -6 16 -21 27 -23 11 16 8 18 3 14 -1 26 26 -1 40 10 16 0 8 -2 1 1 -6 13 -8 11 8 0 10 -18 5 -17 -18 6 -17 0 -33 -9 -24 -1 -3 -30 -9 -23 -11 -17 14 -11 15 9 23 24 9 16 4 14 29 -14 20 -5 17 -2 32 2 -6 -17 -1 -31 6 -24 12 -22 -15 -4 -15 -7 -12 -8 -14 -13 -17 -25 10 -18 20 14 22 10 16 3 23 0 1 20 11 42 -1 14 -4 15 31 -15 14 -11 20 -21 31 30 11 7 23 10 -4 -14 -1 -17 11 -40 1 -20 25 0 17 -4 14 -6 25 -17 10 19 -14 21 -12 12 -15 11 -17 8 -14 4 11 20 7 29 -1 25 -6 20 19 -2 26 1 23 6 29 14 3 -11 8 -16 21 -24 17 -12 15 11 -16 30 -5 21 -1 19 -25 1 -32 9 -22 -1 -13 -5 3 13 11 22 8 0 -9 -14 -3 -11 8 2 17 0 38 -10 27 1 -2 -17 3 -20 3 -9 15 -27 15 9 15 14 9 11 7 13 -1 1 -22 -24 -22 -15 -9 17 -6 22 0 21 3 11 -31 -2 -18 3 -25 8 -13 0 8 16 9 0 -6 -7 0 -3 42 -11 20 0 16 4 8 4 -7 -23 0 -20 4 -17 8 -14 11 7 19 19 12 18 -14 22 -5 21 6 0 5 -20 8 -12 8 11 5 21 6 0 -4 -19 -7 -14 -8 -10 17 -24 14 -13 11 -7 7 12 5 19 -1 26 -7 18 20 -8 24 -1 36 10 6 0 2 2 -6 9 7 0 9 -16 -13 0 -26 -8 -17 -3 -31 2 3 -11 0 -20 -5 -20 -10 -20 -28 20 -17 21 -1 -1 3 -7 15 -20 26 -22 4 1 17 35 3 23 -2 14 27 -1 40 10 14 0 8 -2 1 3 -12 21 7 1 11 -20 4 -15 -18 6 -16 0 -40 -10 -18 1 -1 -21 -4 -17 -17 -34 13 -10 14 8 21 21 13 22 4 13 23 -13 24 -7 32 -2 17 3 -6 -24 0 -25 6 -24 12 -22 -15 -4 -17 -8 -25 -21 -16 -24 10 -18 31 20 27 7 23 0 1 20 11 41 0 10 -5 20 23 -10 12 -8 28 -26 1 -13 -19 23 -19 15 -16 8 0 -26 -11 -40 1 -21 -37 0 -19 -6 -15 -10 4 -3 13 7 27 7 16 0 16 -4 2 1 -2 8 0 20 12 43 0 12 7 -2 11 -8 23 -22 6 -9 0 -14 -4 9 -10 14 -17 16 -9 6 -2 -1 0 -6 -11 -38 0 -21 7 -20 -11 6 -11 3 -23 1 -24 -6 -15 -9 14 -19 12 -11 21 -11 -18 -10 -13 -11 -16 -21 20 -10 23 -5 20 1 21 8 -7 -20 0 -22 9 -31 2 -14 2 -2 26 23 14 23 0 -13 -10 -15 -18 -17 -18 -12 -3 23 -10 34 0 23 2 8 -31 -3 -19 4 -14 5 -12 7 -5 0 14 -11 19 -8 13 -3 28 1 -1 -23 11 -40 0 -29 10 5 19 14 19 19 6 9 0 -11 -30 -29 -22 -13 -12 -4 5 21 0 11 -11 41 -1 22 -20 0 -23 6 -18 9 -21 15 -9 -9 0 -2 15 -18 12 -10 18 -10 14 -5 13 -2 -10 -19 -7 -25 -1 -29 5 -26 -24 5 -26 -1 -21 -6 -14 -7 -9 -7 -9 22 -22 27 -21 15 -4 -1 -9 -8 10 -17 8 -22 3 -14 1 -24 22 0 38 -10 14 0 18 5 -4 -13 -11 -20 -18 -22 -15 -13 30 -32 14 -24 4 -13 -14 5 -22 0 -31 -9 -25 0 -1 -21 -3 -14 -10 -23 -8 -12 14 -11 18 13 23 26 6 12 3 12 24 -12 24 -7 31 -2 18 3 -6 -25 0 -26 7 -27 11 -19 -19 -5 -13 -6 -15 -11 -14 -14 -12 -19 10 -18 18 13 17 9 26 6 20 -1 1 20 11 41 0 11 -5 19 14 -5 20 -12 30 -29 0 -11 -21 25 -15 12 -17 9 -2 -31 -10 -33 1 -24 -18 3 -21 -2 -21 -8 -12 -9 3 -3 21 10 22 5 11 0 22 -4 -2 9 0 20 12 43 1 13 26 -18 10 -10 10 -14 0 -14 -14 23 -16 16 -10 7 -13 -46 0 -21 3 -12 5 -9 -21 9 -24 2 -19 -4 -21 -11 18 -24 17 -13 12 -6 -8 -3 -16 -11 -23 -26 20 -10 25 -5 18 1 21 8 -6 -15 -1 -26 13 -48 11 8 15 15 10 14 4 9 0 -14 -7 -10 -17 -18 -22 -16 -2 21 -11 38 0 22 2 8 -20 -3 -17 1 -24 7 -20 10 -2 -1 17 -12 19 -8 16 -3 24 1 -1 -22 12 -46 -1 -25 15 8 15 12 24 27 0 -11 -18 -19 -21 -16 -25 -12 4 15 1 20 -11 41 -1 21 -24 1 -18 5 -16 8 -18 13 -2 0 -11 -13 1 -4 10 -15 11 -11 24 -16 16 -6 8 -1 -10 -19 -7 -24 -1 -28 5 -28 -23 5 -27 -1 -19 -5 -26 -14 -1 6 -8 17 -14 19 -17 15 -19 11 -25 -17 -17 -17 -13 -20 -11 16 -17 18 -28 20 -19 -11 -17 -15 -16 -22 -8 -20 -21 12 -30 8 -19 0 -24 -5 4 24 0 28 -7 27 -11 20 11 2 19 8 16 11 15 15 10 17 -12 13 -21 -14 -17 -8 -16 -4 -24 -1 -1 -23 -7 -21 -4 -20 1 -17 4 -16 -17 7 -21 14 -27 28 -11 -13 -19 -17 -22 -14 -13 -5 5 23 0 13 -10 34 -2 27 -23 1 -22 6 -33 20 -11 -13 3 -8 8 -11 12 -12 14 -10 17 -8 16 -4 -10 -19 -7 -24 -1 -29 5 -27 -25 5 -24 -1 -25 -7 -19 -12 -2 0 -4 13 -14 23 -17 17 -24 15 -17 -11 -18 -15 -10 -11 -10 -17 -23 29 -32 24 -5 -1 -16 -10 -21 -20 -11 -16 -8 -20 -26 14 -26 6 -19 0 -23 -5 5 32 -1 20 -6 25 -12 21 30 11 15 10 15 15 11 17 -12 14 -21 -14 -17 -8 -23 -5 -17 0 1 -7 -2 -16 -7 -21 -4 -20 1 -18 4 -15 -22 10 zM280 1040l 0 23 4 19 12 24 16 17 9 -8 10 -13 8 -17 5 -22 0 -23 19 15 17 8 14 3 4 3 0 12 -3 16 -11 20 -13 13 -34 24 -16 16 -8 11 -23 -24 -32 -23 -18 -17 -9 -16 -4 -13 -1 -19 2 -3 10 -1 13 -5 16 -9 zM972 1039l 19 16 17 8 15 3 3 3 -1 20 -5 15 -8 13 -13 13 -35 25 -24 26 -23 -25 -36 -26 -12 -12 -11 -19 -3 -12 -1 -17 2 -4 10 -1 21 -9 21 -16 0 23 7 27 11 19 12 13 3 1 16 -18 9 -17 6 -23 zM1088 1033l 12 18 16 16 18 12 20 8 -9 19 -5 22 0 28 4 13 -27 0 -20 3 -17 5 -20 10 -9 -18 -11 -15 -15 -15 -15 -11 10 -12 7 -13 5 -21 -1 -13 16 -3 15 -7 7 -5 zM1081 1078l -17 25 -15 17 14 16 10 15 38 -10 2 -17 6 -20 zM1083 1087l 26 17 2 5 -5 26 -29 9 -20 -24 zM1084 1104l -7 7 -4 9 15 14 14 -21 -11 -7 zM1086 1110l 7 6 -6 7 -6 -6 zM793 1033l 8 11 19 16 13 6 16 3 0 19 5 17 16 23 -21 16 -11 12 -10 15 -7 16 -16 -8 -22 -7 -19 -3 -27 0 4 -18 -1 -27 -5 -19 -8 -18 19 -8 18 -12 18 -18 zM798 1078l -11 9 -25 15 6 24 1 14 2 2 11 1 25 8 24 -31 -26 -33 -5 -9 zM797 1087l 26 33 -18 23 -29 -7 -7 -29 3 -4 zM795 1103l -16 9 2 6 10 10 4 0 13 -9 -3 -6 zM795 1111l 4 6 -6 5 -5 -7 zM460 1033l 8 13 20 21 13 9 25 11 -7 14 -7 27 -1 19 5 22 -27 0 -24 4 -18 6 -15 8 -9 -18 -10 -14 -15 -15 -16 -12 10 -12 7 -13 5 -21 -1 -13 12 -2 17 -7 11 -8 zM453 1078l -15 22 -17 20 15 17 9 14 27 -8 10 -1 8 -36 -1 -5 -9 -4 zM455 1087l 27 18 1 4 -5 26 -2 2 -17 3 -10 4 -20 -24 zM456 1104l -7 7 -4 9 5 3 10 12 13 -22 -12 -8 zM458 1110l 7 6 -6 7 -6 -6 zM165 1033l 9 12 18 15 17 7 12 2 -1 11 3 17 6 14 13 17 -20 15 -13 14 -17 30 -12 -7 -30 -9 -14 -2 -27 0 4 -17 0 -21 -3 -17 -11 -27 19 -8 18 -12 13 -12 zM170 1078l -11 9 -25 15 3 9 5 30 37 10 24 -32 zM169 1086l 26 34 -18 23 -29 -7 -7 -29 zM168 1103l -17 10 5 9 7 6 4 0 12 -8 -2 -6 zM167 1111l 4 6 -6 5 -5 -7 zM763 1012l -21 12 -13 4 -19 2 -18 -3 0 24 -11 37 0 27 -13 -6 -19 -14 -23 -26 -27 29 -12 9 -16 8 0 -27 -11 -39 1 -21 -37 0 -16 -5 -14 -7 -5 -5 5 -2 16 8 18 5 22 1 16 -4 2 1 -2 8 0 19 4 20 8 25 1 12 11 -6 16 -13 20 -25 19 24 28 20 4 -25 9 -31 0 -18 -2 -10 2 -1 16 4 16 0 22 -5 20 -10 zM940 994l 16 20 6 13 4 16 0 24 -4 15 -7 15 -14 18 -10 -9 -6 -9 -6 -13 -5 -20 0 -19 3 -15 9 -19 zM312 994l 13 15 9 18 4 16 0 22 -5 19 -10 19 -11 12 -16 -20 -6 -14 -4 -17 0 -19 5 -20 11 -20 zM954 990l 14 3 22 12 16 16 9 13 9 25 -4 1 -14 -4 -21 -12 -18 -20 -11 -23 zM925 989l 1 5 -3 10 -9 19 -9 12 -19 15 -20 9 -9 1 0 -5 5 -14 12 -20 22 -20 18 -9 zM327 989l 13 4 16 8 21 19 12 18 7 20 -1 3 -17 -5 -12 -6 -19 -15 -8 -11 -9 -18 -4 -12 zM298 989l -3 15 -10 21 -8 10 -19 15 -12 6 -17 4 3 -15 9 -17 11 -14 16 -13 14 -7 zM934 958l 6 6 6 -6 2 9 9 0 -7 8 7 8 -9 0 -1 9 -7 -6 -7 7 0 -9 -9 -1 6 -8 -7 -8 10 0 zM306 958l 6 6 6 -6 2 9 9 0 -6 7 6 9 -9 0 -1 10 -7 -7 -6 6 -1 -8 -9 -1 6 -8 -7 -8 10 0 zM958 975l 13 -13 18 -10 16 -4 20 0 25 8 14 9 10 11 -11 10 -20 11 -19 4 -17 0 -18 -4 -16 -8 zM330 975l 17 -16 14 -7 16 -4 19 0 11 2 17 7 13 9 9 10 -17 14 -17 8 -16 3 -17 0 -18 -4 -14 -7 zM806 975l 14 -13 16 -9 27 -6 13 1 15 4 17 9 15 14 -9 9 -12 8 -14 6 -14 3 -17 0 -22 -5 -15 -8 zM178 975l 11 -11 12 -8 15 -6 17 -3 28 4 19 10 14 13 -8 10 -12 8 -14 6 -15 3 -24 -1 -14 -4 -15 -8 zM1112 915l 18 24 25 22 -13 9 -11 11 -20 27 -6 -5 2 -5 17 -20 22 -17 -20 -17 -21 -22 zM768 915l 7 7 -21 22 -20 17 13 9 20 20 8 12 -6 5 -22 -28 -23 -19 25 -20 zM485 915l 15 22 27 24 -13 9 -12 12 -19 26 -6 -5 4 -8 14 -16 23 -18 -22 -19 -19 -20 zM140 915l 7 7 -19 20 -22 18 18 14 17 18 6 10 -6 6 -18 -25 -12 -12 -15 -11 15 -10 12 -12 zM1023 887l 0 6 -6 17 -12 19 -21 19 -13 7 -17 5 2 -13 15 -29 12 -12 13 -9 zM858 887l 18 6 13 7 20 18 15 29 2 13 -12 -3 -16 -8 -22 -19 -15 -25 -4 -13 zM395 887l 0 6 -5 14 -15 24 -21 18 -21 10 -7 1 0 -7 4 -11 12 -23 21 -19 17 -9 zM229 887l 19 6 13 7 20 18 14 26 4 14 -1 2 -12 -3 -14 -7 -13 -9 -11 -11 -15 -25 zM1045 885l 12 4 18 11 61 61 -11 8 -23 25 -20 36 -14 17 -19 12 -18 3 -6 -20 -7 -14 -17 -21 21 0 24 -5 20 -11 15 -15 0 -2 -13 -13 -26 -15 -16 -4 -25 0 12 -14 9 -15 8 -26 2 -2 zM836 885l 14 1 4 17 8 17 9 13 9 9 -27 0 -18 5 -23 14 -13 13 0 2 11 12 22 13 18 5 29 1 -18 23 -12 31 -15 -1 -17 -9 -16 -17 -27 -45 -18 -19 -12 -9 57 -58 14 -10 zM416 885l 22 9 11 8 32 34 27 25 -21 17 -10 12 -25 43 -17 18 -17 9 -15 2 -6 -20 -7 -14 -17 -21 29 -1 18 -5 18 -10 15 -15 -13 -15 -21 -13 -21 -6 -26 0 17 -20 8 -16 5 -19 2 -2 zM208 885l 14 1 4 17 9 19 15 19 -24 1 -19 5 -21 12 -16 16 16 16 21 11 15 4 29 1 -17 21 -8 17 -5 17 -20 -4 -13 -8 -15 -16 -14 -26 -15 -22 -28 -26 12 -10 49 -50 20 -12 zM940 833l 16 19 6 13 4 17 0 22 -4 17 -9 19 -13 16 -14 -18 -7 -14 -5 -20 0 -22 4 -17 10 -19 zM312 833l 9 9 10 16 4 10 3 16 0 19 -5 20 -9 18 -11 14 -3 -1 -13 -18 -6 -12 -5 -20 0 -22 4 -17 10 -19 zM585 824l 26 23 8 11 7 15 7 -15 8 -11 17 -17 9 -6 13 46 0 22 -7 21 16 -7 26 -2 20 4 22 11 -9 13 -14 14 -16 11 -8 3 9 4 21 16 17 22 -17 10 -23 5 -27 -2 -17 -8 7 21 0 19 -12 47 -14 -10 -13 -13 -9 -13 -6 -13 -7 15 -9 12 -16 15 -10 6 -12 -44 0 -22 7 -20 -21 9 -24 1 -21 -5 -18 -10 19 -24 11 -9 17 -8 -22 -13 -18 -18 -7 -11 20 -10 22 -5 21 1 21 8 -7 -20 0 -23 11 -44 zM626 882l -10 13 -7 16 -2 9 2 25 -9 -3 -24 1 -18 8 -12 9 12 10 21 8 19 1 11 -4 1 3 -3 10 1 18 6 16 12 16 12 -16 6 -16 1 -16 -3 -11 1 -3 11 3 20 -1 18 -7 14 -10 -12 -10 -18 -8 -25 -1 -8 3 -1 -2 3 -11 -2 -21 -7 -16 zM626 964l 7 7 6 17 -2 21 -11 20 -9 -14 -4 -14 2 -22 4 -8 zM631 960l 16 -11 18 -2 16 4 10 5 5 5 -21 11 -21 1 -15 -5 zM556 960l 17 -10 23 -3 19 7 6 7 -7 6 -11 5 -20 1 -12 -3 -10 -5 zM626 892l 9 14 4 17 0 11 -3 10 -10 13 -7 -7 -6 -16 2 -22 6 -14 zM488 912l 13 -9 23 -9 9 -2 19 0 9 2 -2 -17 12 -48 0 -28 28 18 15 14 11 15 2 0 10 -14 18 -17 12 -9 14 -7 -1 22 12 45 0 26 8 -2 18 0 15 3 20 9 12 10 -5 0 -14 -8 -25 -7 -20 -1 -17 3 2 -10 0 -21 -12 -43 0 -14 -10 5 -13 10 -15 15 -10 15 -11 -16 -11 -11 -15 -12 -11 -6 0 14 -12 43 0 21 2 10 -18 -3 -20 1 -18 5 -21 10 zM940 763l 20 22 39 29 12 12 7 10 7 18 0 26 -30 11 -15 10 -8 8 0 -27 -5 -20 -11 -21 -15 -16 -3 1 -13 14 -11 19 -6 24 0 25 -10 -9 -13 -8 -16 -7 -13 -3 -2 -3 1 -23 4 -13 6 -11 15 -16 35 -25 zM312 762l 24 27 32 23 15 14 7 10 7 18 0 26 -17 5 -17 8 -13 9 -6 7 0 -25 -6 -25 -10 -18 -15 -16 -2 0 -11 11 -13 21 -7 27 0 25 -4 -5 -14 -10 -13 -7 -21 -6 -2 -4 1 -23 3 -10 8 -15 15 -16 35 -25 zM303 760l 1 2 -2 2 -1 -2 zM933 758l 1 2 -2 2 -1 -2 zM1059 755l 19 10 21 6 28 1 14 -2 -2 17 1 30 6 22 7 16 -18 6 -24 14 -25 26 -28 -18 -13 -4 -13 -1 0 -18 -4 -17 -10 -18 -10 -11 19 -14 14 -14 10 -14 zM1073 791l -25 31 30 39 19 -12 20 -9 -3 -12 -3 -27 -21 -4 zM1076 798l 22 6 8 4 -1 2 5 25 -31 18 -23 -31 zM1087 805l -7 10 -9 8 12 15 5 -2 9 -8 -2 -7 -6 -7 zM1085 818l 5 7 -5 6 -6 -6 zM821 755l 8 16 14 19 29 24 -10 11 -9 16 -5 20 1 17 -14 1 -18 6 -23 16 -7 -9 -22 -20 -24 -13 -14 -5 8 -16 5 -19 1 -38 -2 -11 2 -1 13 3 27 -1 18 -5 zM808 791l -14 5 -25 5 -1 17 -5 20 39 23 2 0 16 -25 12 -14 zM796 818l 5 6 -5 7 -6 -5 zM805 798l 19 24 -23 31 -29 -16 -1 -7 4 -23 16 -4 0 11 -6 7 -2 7 14 10 13 -13 0 -2 -11 -10 -7 -10 zM431 755l 19 10 21 6 28 1 12 -3 3 1 -3 17 1 30 5 20 8 18 -18 6 -23 13 -16 14 -10 13 -28 -18 -13 -4 -14 -1 1 -17 -5 -20 -9 -16 -10 -11 18 -13 14 -14 11 -15 zM445 790l -7 11 -18 21 20 25 8 14 2 0 23 -14 16 -7 -4 -17 -2 -22 -24 -5 zM457 818l 5 7 -5 6 -5 -5 zM448 798l 12 5 -8 12 -9 9 6 8 8 6 12 -10 -2 -7 -6 -7 1 -8 -2 -2 5 -1 12 4 5 27 -1 3 -30 16 -23 -31 zM307 755l 1 2 -2 2 -1 -2 zM193 755l 9 18 13 17 29 24 -14 16 -6 13 -4 19 1 16 -15 1 -10 3 -14 7 -16 12 -26 -27 -18 -11 -23 -9 9 -18 4 -16 2 -28 -3 -22 36 2 21 -5 zM180 791l -18 6 -21 4 -1 17 -5 20 39 23 2 0 10 -17 18 -22 zM167 819l 6 6 -5 5 -6 -4 zM177 798l 19 24 -23 31 -29 -16 -1 -5 4 -25 17 -5 -1 12 -6 6 -3 8 15 10 13 -13 0 -2 -10 -9 -7 -11 zM936 754l 1 2 -2 2 -1 -2 zM940 747l 8 11 -1 2 -6 -8 -4 3 -1 -1 zM312 747l 8 11 -1 2 -6 -8 -5 4 -1 -1 zM939 655l 2 0 8 9 4 14 -2 21 -4 10 -7 10 -9 -15 -4 -17 2 -17 5 -10 zM311 655l 2 0 7 8 5 17 -3 22 -10 17 -7 -10 -6 -20 0 -10 3 -12 zM945 650l 9 -8 13 -5 21 1 16 7 6 5 -14 9 -16 4 -10 0 -15 -4 zM870 650l 14 -9 14 -4 18 1 12 5 7 6 -9 9 -15 5 -18 -1 -15 -6 zM317 651l 12 -11 11 -3 20 1 16 7 6 5 -16 10 -12 3 -18 -1 -12 -5 zM242 650l 14 -9 14 -4 19 1 11 5 7 7 -7 7 -16 6 -23 -2 -13 -6 zM940 582l 10 16 3 14 -3 22 -10 12 -8 -9 -5 -16 2 -18 zM312 582l 9 14 4 17 -3 20 -10 13 -8 -9 -5 -17 3 -21 zM987 526l 2 3 -3 5 8 25 0 20 -2 10 -6 14 19 -8 25 -1 43 11 -3 6 -15 17 -18 15 -14 7 12 5 18 14 21 25 -32 9 -24 3 -18 -3 -14 -6 7 18 1 27 -5 21 -8 16 -15 -10 -11 -11 -11 -16 -3 -9 -14 23 -20 19 -8 4 -8 -16 -5 -22 1 -26 7 -18 -22 8 -15 1 -19 -3 -31 -9 6 -10 19 -20 14 -10 10 -4 -10 -5 -17 -13 -15 -16 -7 -11 43 -11 29 2 15 7 -4 -8 -4 -16 0 -21 9 -29 3 -1 20 16 12 13 10 15 -11 15 -6 15 -1 25 2 6 -2 1 -13 -3 -16 1 -18 7 -15 11 9 8 18 8 16 3 20 -3 1 3 -3 11 2 19 8 18 10 11 9 -12 7 -16 2 -14 -2 -21 16 4 13 -1 15 -5 19 -12 -13 -11 -13 -6 -14 -3 -24 2 3 -13 -1 -15 -4 -12 -13 -22 13 -19 12 -12 zM992 521l 7 11 5 14 3 19 -2 18 26 -1 39 10 25 0 -6 12 -23 29 -4 1 1 1 -16 14 32 31 9 13 7 15 -29 0 -27 8 -14 2 -20 -2 0 36 -7 23 -8 16 -5 6 -18 -14 -20 -23 1 -1 17 17 19 12 10 -21 5 -20 1 -25 -3 -11 1 -3 25 4 20 -3 25 -8 16 -1 -16 -24 -18 -18 -12 -8 28 -25 13 -17 4 -9 -11 0 -45 -11 -17 0 -11 3 0 -39 -4 -13 -7 -13 zM355 528l 3 3 8 30 -1 22 -7 20 19 -8 23 -1 45 11 -9 13 -19 19 -22 13 10 4 21 16 19 24 -35 10 -18 2 -20 -3 -14 -6 7 19 1 23 -5 24 -8 16 -14 -9 -12 -12 -9 -12 -5 -13 -15 24 -12 12 -15 10 -7 -13 -6 -26 1 -25 7 -18 -23 8 -24 0 -41 -11 12 -16 15 -15 11 -8 12 -5 -19 -11 -23 -23 -7 -11 42 -11 20 0 10 2 14 6 -5 -13 -3 -16 2 -21 7 -18 -3 -7 -6 11 -5 19 -1 16 3 18 -13 -3 -19 0 -42 11 -12 0 6 11 12 15 12 12 16 12 -27 23 -19 28 17 1 36 10 15 1 18 -4 1 2 -3 11 1 27 6 21 10 19 22 -15 10 -10 1 1 -20 21 -16 11 -11 -19 -8 -25 -2 -17 2 -19 -11 2 -17 -1 -38 -10 -24 1 9 -18 12 -16 19 -18 8 -5 0 -2 -16 -13 -16 -17 -16 -27 24 0 38 -10 28 1 -2 -12 2 -22 4 -13 9 -16 5 6 17 11 14 13 16 22 -8 10 -8 16 -2 9 0 20 2 6 -23 -2 -15 3 -16 8 -10 8 15 11 15 6 18 2 16 -4 -3 17 2 17 5 13 12 17 11 -15 7 -18 1 -18 -3 -10 1 -3 2 2 12 2 14 -1 20 -7 15 -11 -13 -10 -16 -7 -11 -2 -24 2 3 -12 -2 -20 -7 -16 -9 -11 0 -3 12 -18 14 -14 zM986 511l 6 10 -1 1 -5 -3 -17 11 -19 17 -9 13 -19 -21 -28 -20 -10 22 -4 17 1 33 -13 -3 -17 0 -42 11 -12 0 4 9 14 18 27 24 -11 7 -12 11 -12 14 -11 18 16 1 18 6 26 5 15 -1 11 -3 1 2 -3 11 1 26 6 22 9 19 7 -3 15 -11 12 -12 1 1 -22 24 -14 10 -13 -22 -7 -23 0 -36 -29 1 -36 -10 -24 0 4 -10 12 -18 16 -17 15 -11 0 -2 -15 -12 -17 -18 -16 -27 24 0 39 -10 27 1 -2 -17 3 -20 4 -12 14 -24 17 12 22 23 7 11 14 -19 16 -16 zM356 510l 7 8 12 25 4 24 -2 16 27 -1 38 10 24 0 -5 12 -21 27 -22 19 27 23 13 17 9 17 -1 2 -6 -2 -21 1 -33 9 -29 -1 2 15 -2 21 -8 25 -11 20 -14 -9 -18 -18 -7 -10 1 -1 21 20 15 9 8 -16 7 -25 1 -25 -3 -11 1 -3 26 4 18 -3 26 -8 15 -1 -6 -12 -9 -12 -15 -15 -16 -11 28 -24 14 -18 4 -9 -16 -1 -38 -10 -18 0 -13 3 2 -14 -1 -23 -13 -35 -25 17 -19 21 -1 -3 14 -19 15 -15 zM266 510l 18 13 15 15 11 14 1 4 3 1 -2 3 -23 -25 -22 -16 -6 0 zM908 402l 0 23 6 25 8 16 17 19 2 0 13 -13 13 -23 5 -22 0 -25 20 16 15 7 17 4 2 4 -2 22 -11 23 -14 15 -35 25 -23 26 -22 -23 -44 -34 -11 -14 -8 -19 -2 -16 1 -8 32 -11 12 -8 zM344 402l 8 8 14 9 13 6 17 4 2 3 -1 18 -5 16 -9 14 -13 13 -35 25 -23 26 -20 -22 -39 -29 -17 -20 -8 -19 -2 -21 2 -4 20 -5 14 -7 18 -14 1 28 5 18 12 22 13 14 2 0 14 -15 13 -25 4 -18 zM1087 395l 10 15 14 15 23 16 19 7 -8 19 -5 22 0 30 4 13 -27 0 -15 2 -24 7 -18 9 -9 -18 -11 -15 -30 -26 14 -19 3 -7 5 -21 -1 -13 17 -3 16 -8 18 -17 zM1081 440l -13 20 -19 23 13 14 12 17 13 -5 24 -5 3 -21 5 -17 zM1084 450l 27 18 -5 30 -29 9 -20 -24 16 -19 8 -13 zM1085 466l -8 8 -4 9 16 12 13 -19 zM1086 474l 7 4 -6 7 -5 -5 zM793 395l 7 10 21 18 15 6 13 2 0 19 4 14 6 12 12 15 -23 18 -11 12 -17 29 -10 -6 -22 -8 -27 -4 -24 0 4 -18 0 -21 -6 -28 -8 -17 23 -9 17 -12 14 -14 zM799 440l -11 9 -25 15 -1 3 5 17 3 20 13 2 24 8 24 -32 -14 -16 zM797 449l 26 33 -19 24 -28 -7 -7 -28 1 -4 13 -7 zM796 466l -8 3 -9 7 13 20 15 -14 -4 -9 zM793 474l 2 0 4 5 -5 6 -6 -6 zM459 395l 13 19 12 12 17 12 24 10 -8 18 -6 31 1 22 4 13 -24 0 -27 4 -18 6 -15 8 -8 -16 -13 -18 -11 -11 -19 -14 14 -18 5 -11 4 -18 -1 -13 14 -2 14 -6 10 -7 zM452 440l -13 21 -18 22 15 17 9 14 24 -8 14 -2 3 -23 5 -15 zM455 450l 27 17 1 5 -6 27 -29 7 -19 -23 22 -30 zM457 466l -8 7 -4 10 15 14 3 -7 12 -14 zM458 473l 7 5 -6 7 -6 -5 zM165 395l 11 15 14 11 18 8 13 2 -1 11 4 19 7 15 12 15 -18 13 -13 13 -14 20 -6 13 -20 -10 -17 -5 -21 -3 -25 0 4 -18 0 -21 -4 -22 -10 -23 21 -8 20 -14 12 -12 zM171 440l -20 15 -16 9 -1 3 4 12 3 24 28 7 9 4 12 -17 13 -14 -16 -19 zM169 449l 26 34 -19 23 -29 -8 -6 -28 1 -3 zM168 465l -19 11 13 14 5 0 12 -8 zM165 474l 2 0 4 5 -5 5 -6 -5 zM488 374l 4 -3 21 10 22 5 12 0 21 -4 -2 7 0 23 11 39 1 16 17 -10 24 -23 1 1 -1 -2 7 -11 6 10 15 17 26 18 2 -17 11 -38 0 -21 -2 -9 21 4 12 0 25 -6 18 -9 3 2 -12 10 -21 8 -29 1 -9 -2 -1 28 -8 24 -3 17 1 20 -15 -8 -17 -13 -12 -12 -11 -15 -9 12 -19 19 -19 13 -8 3 0 -24 -9 -30 -3 -18 2 -16 -17 3 -18 -1 -17 -5 zM473 371l 18 13 20 10 16 4 18 1 7 -2 2 2 -1 7 3 19 10 35 0 9 -5 20 16 -6 19 -12 30 -29 24 25 23 15 18 7 -4 -15 -1 -15 2 -12 8 -24 2 -25 19 1 24 -5 20 -10 18 -13 10 18 -16 24 -21 18 -19 9 -16 4 11 20 6 23 1 25 -7 29 17 -3 32 2 27 8 21 11 1 -6 9 -19 22 -25 19 -13 13 11 -11 17 -7 18 -3 14 -1 20 -20 0 -31 9 -16 2 -15 -2 -10 -4 5 15 13 22 30 31 -23 23 -10 13 -9 16 -6 17 17 -5 16 0 33 9 14 2 12 -1 0 14 5 27 7 19 10 17 -12 9 -19 -13 -14 -14 -10 -14 -9 -23 -24 14 -21 6 -23 1 -26 -6 4 24 0 27 -6 26 -12 22 27 8 15 8 14 11 16 19 -9 11 -19 -14 -22 -11 -22 -5 -19 0 0 -18 -12 -46 0 -10 5 -21 -10 3 -26 15 -13 11 -16 18 -30 -29 -21 -13 -14 -5 5 22 0 10 -12 44 0 19 -19 0 -22 5 -17 8 -23 17 -11 -10 19 -22 10 -8 19 -10 25 -6 -10 -19 -7 -23 -1 -32 5 -26 -24 6 -20 0 -27 -7 -23 -14 -11 25 -20 24 -21 15 -13 -8 8 -14 10 -26 4 -23 0 -15 21 0 39 -10 15 0 17 5 -7 -19 -8 -14 -10 -13 -23 -22 21 -21 11 -14 10 -17 6 -17 -14 5 -21 0 -38 -10 -19 1 -1 -21 -4 -17 -17 -33 12 -10 15 9 23 23 10 17 4 14 29 -14 19 -5 17 -2 33 2 -5 -12 -2 -12 0 -28 7 -25 10 -19 -31 -11 -14 -10 -15 -15 -12 -19 zM627 507l -2 0 -9 9 -12 20 -5 19 -1 15 -8 -8 -21 -13 -25 -8 -16 -2 2 21 5 17 6 13 15 19 -20 3 -17 7 -14 10 -11 12 13 14 12 8 16 6 21 3 -15 19 -6 13 -5 17 -2 21 18 -2 18 -5 20 -10 14 -13 6 30 9 16 13 14 10 -10 11 -19 7 -30 12 11 18 10 20 6 19 2 -1 -18 -7 -24 -9 -16 -11 -12 18 -2 13 -4 15 -8 17 -16 -11 -13 -12 -9 -18 -8 -18 -2 -3 -2 8 -8 11 -19 7 -24 1 -18 -24 4 -19 7 -17 11 -9 9 -2 -20 -5 -16 -11 -18 zM626 660l 11 17 8 20 2 11 -1 18 -3 11 -9 18 -8 9 -12 -15 -9 -25 1 -24 7 -19 zM638 656l 13 1 9 5 21 7 13 10 8 9 6 11 6 17 3 18 -7 1 -27 -8 -15 -9 -11 -11 -7 -11 -11 -29 zM614 655l -1 11 -11 29 -11 16 -9 8 -16 9 -15 5 -15 2 -1 -7 6 -23 12 -21 9 -9 11 -7 28 -11 zM621 624l 5 6 5 -6 1 9 10 0 -6 7 6 9 -10 0 -1 8 -5 -5 -5 6 -1 -9 -10 0 6 -7 -6 -9 10 0 zM643 641l 14 -13 22 -10 8 -2 22 0 16 5 9 5 10 8 6 8 -8 8 -19 11 -15 4 -21 0 -31 -12 zM502 642l 18 -17 12 -6 12 -3 21 0 12 4 21 10 11 11 -13 12 -31 12 -22 0 -12 -3 -17 -9 zM716 546l 0 10 -5 18 -5 12 -8 12 -17 14 -27 11 -16 4 -1 -3 4 -15 9 -23 8 -12 13 -12 14 -8 14 -5 zM534 547l 9 0 18 5 18 9 12 10 10 13 11 28 3 14 -2 1 -13 -3 -25 -10 -12 -7 -14 -15 -11 -25 zM626 515l 12 14 6 13 3 14 0 18 -7 23 -9 18 -5 6 -12 -18 -9 -28 0 -20 3 -13 10 -19 zM145 369l 1 -1 1 2 -1 1 zM940 357l 14 16 7 14 5 18 1 15 -7 30 -9 16 -10 11 -15 -16 -8 -17 -4 -18 0 -16 4 -19 8 -17 zM312 357l 17 21 6 14 3 14 0 22 -4 16 -7 15 -15 18 -11 -12 -9 -16 -6 -25 0 -16 5 -20 9 -17 zM926 353l 0 6 -3 8 -14 26 -13 13 -12 8 -26 9 -1 -5 6 -16 12 -19 23 -20 14 -7 zM326 354l 3 -1 14 5 23 14 17 19 8 15 5 16 -2 1 -12 -3 -15 -7 -13 -9 -14 -16 -12 -24 zM298 353l -2 12 -16 29 -12 12 -14 9 -25 8 0 -5 6 -16 13 -20 19 -17 22 -11 zM954 353l 11 2 27 15 18 19 10 19 4 14 -3 1 -14 -4 -25 -15 -15 -17 -12 -26 zM933 321l 1 -1 1 2 -1 1 zM306 320l 5 6 2 0 5 -6 2 10 9 0 -7 8 7 8 -9 0 -1 9 -7 -6 -6 6 -1 -8 -9 -1 6 -8 -7 -8 9 0 zM947 319l 0 10 10 1 -6 7 0 3 6 6 -9 0 -1 9 -6 -5 -7 5 -2 -9 -9 0 7 -7 -7 -9 10 -1 2 -7 5 5 zM958 338l 13 -13 14 -8 16 -5 20 -1 16 3 16 7 14 10 7 8 -16 14 -12 6 -18 5 -16 1 -24 -5 -17 -9 zM807 338l 10 -10 16 -10 18 -6 21 -1 16 3 15 7 12 9 7 9 -13 12 -17 9 -27 5 -18 -2 -13 -4 -16 -9 -10 -9 zM330 338l 13 -13 14 -8 16 -5 20 -1 12 2 18 7 15 10 8 9 -12 11 -16 9 -12 4 -22 2 -22 -4 -18 -9 zM178 339l 8 -9 13 -9 10 -5 20 -5 15 0 21 5 16 9 13 13 -7 8 -11 8 -14 7 -20 4 -19 -1 -15 -4 -17 -9 zM1113 278l 12 17 19 19 11 8 -25 22 -18 27 -7 -6 6 -10 20 -21 16 -11 -33 -34 -5 -7 zM767 278l 4 5 -11 14 -26 24 0 2 24 19 18 23 -7 5 -20 -27 -25 -21 22 -17 zM485 278l 12 17 18 18 12 9 -26 23 -15 23 -3 2 -6 -5 5 -9 17 -19 20 -15 -14 -12 -24 -28 zM139 278l 4 4 -14 18 -24 22 19 14 16 17 7 10 0 3 -5 4 -3 -1 -17 -25 -12 -12 -14 -10 16 -11 8 -8 zM1022 250l 1 5 -6 16 -14 22 -9 9 -17 12 -23 9 0 -7 4 -11 15 -27 19 -16 16 -8 zM858 250l 24 9 16 11 12 12 13 25 4 13 -1 3 -10 -3 -19 -10 -21 -19 -15 -25 -4 -13 zM394 250l 1 3 -5 15 -13 22 -19 18 -26 14 -6 1 -1 -3 5 -16 14 -25 10 -10 15 -10 zM230 250l 24 9 16 11 12 12 15 29 2 8 -1 4 -25 -11 -14 -10 -11 -11 -14 -23 -5 -15 zM941 194l 12 14 8 15 5 18 1 16 -3 19 -5 14 -8 15 -11 13 -12 -15 -9 -18 -5 -22 0 -18 3 -14 7 -17 8 -12 zM312 194l 10 10 8 13 8 26 0 21 -4 18 -9 19 -13 16 -13 -16 -9 -19 -4 -17 0 -22 5 -19 11 -20 zM668 186l 12 48 0 21 -2 10 -5 11 16 -7 25 -2 26 6 16 9 -16 21 -11 9 -19 11 7 2 16 11 16 16 8 13 -18 10 -22 5 -23 -2 -21 -9 7 21 0 21 -12 46 -13 -9 -13 -13 -10 -14 -6 -13 -4 10 -10 15 -16 16 -12 8 -12 -46 0 -20 7 -22 -13 7 -19 4 -11 0 -20 -4 -21 -11 8 -13 11 -12 14 -11 14 -7 -15 -7 -9 -7 -23 -26 17 -9 27 -6 19 1 21 8 -7 -21 0 -20 13 -48 24 21 10 13 7 15 6 -13 10 -14 16 -16 zM626 246l -9 11 -8 17 -2 10 2 22 -15 -3 -20 2 -15 7 -13 9 0 2 11 8 18 8 23 2 11 -4 1 3 -3 9 2 23 7 16 9 12 9 -9 8 -16 3 -14 -2 -23 15 3 14 -1 13 -4 21 -13 -13 -11 -17 -7 -20 -2 -13 4 -1 -2 3 -9 -2 -22 -6 -14 zM626 326l 7 7 6 17 0 14 -2 8 -6 13 -5 6 -9 -14 -4 -14 2 -22 5 -9 zM631 323l 9 -9 15 -5 21 2 12 5 8 6 -14 9 -16 4 -10 0 -15 -4 zM556 322l 6 -5 13 -6 21 -2 18 6 7 8 -13 9 -10 3 -11 0 -17 -4 zM626 255l 9 14 4 16 -2 18 -4 8 -7 7 -9 -10 -4 -12 2 -21 5 -12 zM487 277l 15 -11 20 -8 16 -3 23 2 -2 -10 1 -14 12 -45 -1 -25 13 7 18 14 24 27 9 -12 19 -19 18 -13 9 -4 0 30 11 40 -1 24 11 -2 25 2 25 10 13 10 -2 1 -17 -9 -18 -6 -26 -2 -18 3 2 -10 0 -21 -10 -34 -3 -24 -20 14 -15 15 -12 17 -20 -25 -27 -21 -2 21 -11 38 -1 10 3 19 -6 1 -12 -3 -25 2 -21 7 -15 8 zM744 321l 16 -15 28 -35 13 -12 25 -12 25 -2 3 -4 0 -22 3 -13 9 -17 13 -14 22 -14 19 -15 21 -23 22 25 36 25 16 16 10 22 1 30 5 5 18 0 9 2 20 10 16 15 21 27 22 22 -13 10 -17 18 -14 21 -12 23 -15 17 -16 10 -19 3 -9 -26 -10 -16 -10 -11 26 -1 16 -4 21 -11 17 -16 -14 -15 -22 -13 -24 -6 -24 1 10 -10 11 -16 8 -18 2 -8 -1 -6 -4 -5 -22 7 -16 9 -14 12 0 -29 -5 -20 -13 -23 -14 -14 -17 19 -9 17 -6 25 0 25 -16 -13 -22 -11 -13 -3 -6 7 3 13 9 19 11 15 9 8 -25 -1 -24 6 -19 11 -16 16 0 2 17 16 17 9 28 6 19 -1 -10 10 -10 15 -11 29 -16 -2 -19 -11 -14 -16 -14 -26 -13 -19 zM116 321l 22 -22 21 -27 15 -14 24 -11 24 -1 4 -4 0 -25 3 -12 8 -16 16 -16 35 -24 24 -26 26 28 33 22 16 16 8 16 3 12 -1 23 6 6 19 0 8 2 21 11 14 13 23 29 21 21 -12 9 -20 21 -12 18 -10 20 -16 20 -17 11 -19 3 -13 -33 -17 -21 19 1 27 -6 22 -13 12 -12 0 -2 -20 -19 -18 -9 -21 -5 -24 1 9 -9 14 -21 8 -25 -5 -7 -17 4 -23 12 -13 11 1 -25 -6 -26 -10 -18 -16 -17 -14 14 -13 24 -5 21 0 27 -19 -15 -19 -9 -13 -3 -6 8 4 15 7 14 8 12 13 13 -25 -1 -19 4 -23 12 -18 18 18 17 17 9 18 5 29 0 -16 18 -7 13 -8 23 -16 -2 -20 -12 -15 -18 -23 -40 zM1059 106l 16 8 19 6 12 2 36 -1 -3 15 1 32 7 25 7 12 -22 9 -18 12 -16 16 -11 16 -10 -8 -15 -7 -12 -3 -18 -1 1 -17 -5 -22 -9 -16 -17 -16 19 -12 18 -17 11 -15 zM1073 141l -25 32 18 22 10 17 2 0 39 -21 -4 -18 -2 -21 -24 -5 zM1084 169l 6 6 -5 6 -6 -6 zM1075 149l 11 3 1 2 -6 10 -11 10 0 2 14 14 13 -11 -1 -6 -7 -9 0 -11 17 5 4 28 -30 18 -4 -3 -7 -12 -13 -16 zM431 106l 16 8 19 6 12 2 24 0 10 -3 2 2 -3 13 0 28 6 26 9 17 -18 7 -26 17 -13 14 -10 15 -10 -8 -15 -7 -11 -3 -19 -1 0 -23 -6 -20 -8 -13 -16 -15 19 -12 18 -17 13 -18 zM445 141l -25 32 18 22 10 17 2 0 14 -9 25 -12 -4 -18 -2 -21 -20 -4 zM447 149l 31 9 0 9 4 18 -1 3 -30 16 -23 -32 zM459 155l -6 9 -12 11 15 15 13 -11 -2 -7 -6 -7 zM457 169l 4 5 0 3 -4 4 -6 -6 zM821 105l 9 18 12 16 13 13 23 16 -15 14 -9 15 -6 22 1 20 -18 1 -12 3 -17 8 -9 7 -10 -15 -13 -14 -22 -15 -21 -9 8 -16 6 -24 1 -13 -3 -32 13 2 29 -1 24 -7 zM807 141l -21 8 -17 3 -1 19 -5 18 40 23 29 -39 zM795 169l 6 6 -5 7 -5 -5 zM805 149l 19 24 -23 31 -29 -16 -1 -5 4 -25 18 -5 -1 10 -7 9 -2 6 14 12 14 -15 -8 -7 -9 -14 1 -2 zM193 105l 8 16 14 19 9 9 26 19 -14 12 -10 16 -6 20 0 23 -17 1 -15 4 -16 8 -7 6 -10 -15 -14 -15 -19 -13 -23 -10 9 -18 6 -29 0 -16 -3 -22 14 2 28 -1 19 -5 zM180 141l -19 7 -20 4 -1 19 -4 15 0 5 39 21 30 -40 -18 -20 zM168 169l 6 6 -5 6 -6 -4 1 -4 zM177 149l 20 23 -23 32 -30 -16 -1 -3 4 -27 16 -5 2 1 -2 6 1 3 -8 10 -1 6 14 11 15 -15 -12 -11 -6 -10 3 -3 zM1122 0l 10 12 16 11 16 6 22 3 -12 13 -9 16 -6 20 -2 22 15 -1 25 -7 14 -7 17 -15 1 16 4 15 9 17 11 12 0 -9 -5 -5 -9 -16 -5 -20 0 -13 4 -16 6 -16 9 -16 0 -13 -2 4 -2 -5 -8 1 5 -6 -1 -3 -8 0 1 2 -13 11 -17 8 -15 4 -19 0 -16 -4 -15 -8 -13 -13 zM1249 13l 1 -1 1 2 -1 1 zM1246 13l 2 4 -9 16 -8 24 -10 15 -6 6 -19 11 -32 8 0 -11 4 -16 7 -15 10 -14 15 -12 17 -5 27 -12 zM861 0l 21 13 14 4 14 1 14 -4 -3 15 1 15 5 16 13 19 11 -14 8 -20 1 -14 -4 -15 1 -2 14 4 14 -1 16 -5 19 -12 zM950 3l 42 -1 10 2 -15 6 -17 1 -14 -4 zM940 2l 9 12 4 14 -1 18 -6 15 -6 8 -7 -11 -5 -18 1 -18 5 -12 zM878 3l 51 0 -8 5 -11 3 -19 -2 zM775 69l 1 3 17 -6 15 0 39 8 20 -2 1 25 5 22 11 20 9 9 28 -19 9 -9 10 -15 7 11 17 17 23 15 11 -11 10 -20 4 -17 1 -28 21 2 35 -8 19 0 18 6 -3 -15 -10 -24 -15 -18 -18 -13 3 -2 -23 1 2 0 0 5 9 6 15 15 12 18 -1 2 -9 0 -31 8 -22 0 -17 -4 -11 -6 7 25 0 22 -3 16 -7 15 3 8 7 -13 5 -18 2 -22 -3 -17 1 -4 15 4 24 0 33 -8 16 -1 -9 -20 -17 -19 1 -2 13 10 11 13 6 11 5 16 -19 -2 -44 9 -29 -3 2 27 -3 17 -7 18 -11 13 -16 -10 -12 -11 -11 -14 -6 -14 -16 25 -16 15 -15 9 -10 -12 -9 -24 -2 -18 2 -21 -26 3 -45 -9 -21 2 5 -15 9 -16 12 -13 12 -8 1 1 -20 22 -9 21 17 0 33 8 24 0 15 -4 1 2 -3 13 2 33 5 15 7 11 3 -7 -6 -10 -5 -22 1 -26 7 -21 -9 5 -20 5 -22 0 -41 -9 14 -21 14 -14 17 -11 -29 0 2 1 -16 12 -10 10 -7 11 -7 15 zM1058 10l 2 -1 2 2 -2 1 zM494 0l 11 13 11 8 19 8 22 3 -10 11 -9 15 -7 20 -3 25 16 -1 24 -7 15 -8 15 -13 3 21 6 16 10 15 9 8 11 -11 10 -18 5 -19 1 -13 7 8 21 13 22 7 20 2 -2 -22 -8 -24 -10 -16 -9 -9 18 -2 18 -6 18 -12 10 -11 -8 -1 -8 9 -20 12 -16 4 -18 0 -25 -8 -12 -7 -9 -8 0 -2 -7 0 -1 2 5 6 -7 0 -1 7 -5 -7 -3 2 -11 19 -14 35 -15 16 -21 11 -26 6 -1 -9 7 -24 11 -19 17 -15 43 -17 3 -4 -3 -1 4 -7 -9 -1 1 2 -10 9 -20 10 -15 4 -19 0 -18 -5 -15 -9 -11 -11 zM626 20l 16 31 5 23 -1 13 -4 15 -6 12 -10 12 -11 -13 -10 -27 1 -24 10 -26 zM634 11l 31 14 15 4 20 18 13 27 3 13 0 10 -17 -3 -17 -6 -14 -8 -12 -12 -7 -12 -11 -32 -5 -7 zM234 1l 20 12 14 4 14 1 14 -4 -3 13 1 18 8 20 10 14 9 -11 8 -17 2 -8 0 -18 -3 -10 16 3 18 -2 17 -7 12 -9 zM323 3l 50 1 -15 6 -16 1 -13 -4 zM312 2l 7 9 5 15 -1 22 -4 11 -6 9 -8 -10 -5 -17 1 -20 zM301 3l -8 5 -11 3 -15 -1 -16 -6 34 -2 zM147 67l 0 5 17 -6 18 0 37 8 20 -2 1 27 5 20 8 16 12 13 31 -22 16 -21 8 12 14 14 25 17 10 -10 9 -16 6 -23 1 -27 20 2 36 -8 19 0 17 6 -3 -17 -7 -17 -11 -16 -10 -10 -14 -10 3 -2 -30 0 8 4 26 25 7 10 2 7 -39 9 -22 0 -19 -5 -10 -5 4 8 4 18 -1 27 -4 16 -5 9 3 8 7 -13 5 -18 1 -28 -3 -13 1 -2 17 4 23 0 37 -9 11 1 -1 -6 -7 -14 -19 -22 1 -1 13 10 10 11 8 13 6 17 -20 -2 -45 9 -27 -3 2 23 -3 20 -9 22 -9 10 -17 -11 -17 -17 -8 -12 -4 -10 -9 18 -9 11 -12 11 -16 10 -10 -12 -8 -20 -3 -19 2 -24 -26 3 -45 -9 -9 0 -11 3 -1 -3 4 -12 9 -17 13 -14 11 -7 1 1 -17 18 -8 14 -3 11 10 -1 39 9 24 0 16 -4 1 2 -3 12 1 28 7 23 6 8 2 -7 -6 -12 -4 -21 1 -25 7 -20 -15 7 -14 3 -22 0 -41 -9 12 -20 13 -13 10 -7 -3 -6 -16 0 2 1 -16 11 -11 11 -11 19 zM427 8l 2 -1 3 3 -2 1 zM7 0l -1 2 4 6 -9 1 -1 16 8 14 7 19 3 25 -5 22 -6 11 -7 8 0 9 10 -11 9 -16 4 -14 1 -18 11 10 17 10 18 6 25 3 -2 -20 -8 -24 -8 -14 -12 -13 12 -1 19 -5 18 -10 16 -16 -9 0 -8 9 -18 11 -19 5 -16 0 -19 -5 -19 -10 -9 -8 1 -2 zM6 11l 2 2 4 -1 4 4 23 10 12 3 17 14 14 24 5 18 0 12 -31 -8 -14 -7 -15 -14 -7 -12 -14 -38 z" fill="#10212b" fill-rule="evenodd"/></defs><use href="#t"/><use href="#t" transform="translate(2508) scale(-1 1)"/><use href="#t" transform="translate(0 2508) scale(1 -1)"/><use href="#t" transform="translate(2508 2508) scale(-1)"/></svg>